<mxfile host="app.diagrams.net" agent="Mozilla/5.0 (Windows NT 10.0; Win64; x64) AppleWebKit/537.36 (KHTML, like Gecko) Chrome/127.0.0.0 Safari/537.36" version="24.7.5">
  <diagram name="Page-1" id="74b105a0-9070-1c63-61bc-23e55f88626e">
    <mxGraphModel dx="1687" dy="908" grid="1" gridSize="10" guides="1" tooltips="1" connect="1" arrows="1" fold="1" page="1" pageScale="1.5" pageWidth="1169" pageHeight="826" background="none" math="0" shadow="0">
      <root>
        <mxCell id="0" style=";html=1;" />
        <mxCell id="1" style=";html=1;" parent="0" />
        <mxCell id="10b056a9c633e61c-30" value="Title" style="text;strokeColor=none;fillColor=none;html=1;fontSize=24;fontStyle=1;verticalAlign=middle;align=center;" parent="1" vertex="1">
          <mxGeometry x="80" y="40" width="1590" height="40" as="geometry" />
        </mxCell>
        <mxCell id="XV3cAcyTehocmHuWpAyz-3" value="Client" style="rounded=0;whiteSpace=wrap;html=1;strokeWidth=2;verticalAlign=top;fontSize=15;fontStyle=1" vertex="1" parent="1">
          <mxGeometry x="1080" y="495" width="250" height="380" as="geometry" />
        </mxCell>
        <mxCell id="XV3cAcyTehocmHuWpAyz-4" value="Server" style="rounded=0;whiteSpace=wrap;html=1;strokeWidth=2;verticalAlign=top;fontSize=15;fontStyle=1" vertex="1" parent="1">
          <mxGeometry x="440" y="330" width="570" height="730" as="geometry" />
        </mxCell>
        <mxCell id="XV3cAcyTehocmHuWpAyz-5" value="MongoDB&lt;div&gt;(NoSQL)&lt;/div&gt;" style="shape=cylinder3;whiteSpace=wrap;html=1;boundedLbl=1;backgroundOutline=1;size=15;strokeWidth=2;fontStyle=1;fontSize=20;" vertex="1" parent="1">
          <mxGeometry x="160" y="590" width="142.5" height="190" as="geometry" />
        </mxCell>
        <mxCell id="XV3cAcyTehocmHuWpAyz-6" value="React JS" style="rounded=0;whiteSpace=wrap;html=1;fontSize=14;fontStyle=1;strokeWidth=2;" vertex="1" parent="1">
          <mxGeometry x="1110" y="630" width="180" height="90" as="geometry" />
        </mxCell>
        <mxCell id="XV3cAcyTehocmHuWpAyz-11" style="edgeStyle=orthogonalEdgeStyle;rounded=0;orthogonalLoop=1;jettySize=auto;html=1;" edge="1" parent="1" source="XV3cAcyTehocmHuWpAyz-8" target="XV3cAcyTehocmHuWpAyz-10">
          <mxGeometry relative="1" as="geometry" />
        </mxCell>
        <mxCell id="XV3cAcyTehocmHuWpAyz-8" value="URL-Shortening&lt;div&gt;Service&lt;/div&gt;&lt;div&gt;(NodeJs)&lt;/div&gt;" style="rounded=0;whiteSpace=wrap;html=1;fontSize=14;fontStyle=1;strokeWidth=2;" vertex="1" parent="1">
          <mxGeometry x="510" y="500" width="180" height="90" as="geometry" />
        </mxCell>
        <mxCell id="XV3cAcyTehocmHuWpAyz-12" style="edgeStyle=orthogonalEdgeStyle;rounded=0;orthogonalLoop=1;jettySize=auto;html=1;entryX=0.5;entryY=1;entryDx=0;entryDy=0;" edge="1" parent="1" source="XV3cAcyTehocmHuWpAyz-9" target="XV3cAcyTehocmHuWpAyz-10">
          <mxGeometry relative="1" as="geometry" />
        </mxCell>
        <mxCell id="XV3cAcyTehocmHuWpAyz-9" value="Redirecting&lt;div&gt;Service&lt;/div&gt;&lt;div&gt;(NodeJs)&lt;/div&gt;" style="rounded=0;whiteSpace=wrap;html=1;fontSize=14;fontStyle=1;strokeWidth=2;" vertex="1" parent="1">
          <mxGeometry x="510" y="790" width="180" height="90" as="geometry" />
        </mxCell>
        <mxCell id="XV3cAcyTehocmHuWpAyz-10" value="&lt;div&gt;API Gateway&lt;/div&gt;&lt;div&gt;(Ocelot .NET)&lt;/div&gt;" style="rounded=0;whiteSpace=wrap;html=1;fontSize=14;fontStyle=1;strokeWidth=2;" vertex="1" parent="1">
          <mxGeometry x="750" y="630" width="180" height="90" as="geometry" />
        </mxCell>
        <mxCell id="XV3cAcyTehocmHuWpAyz-13" style="edgeStyle=orthogonalEdgeStyle;rounded=0;orthogonalLoop=1;jettySize=auto;html=1;entryX=0;entryY=0.5;entryDx=0;entryDy=0;" edge="1" parent="1" source="XV3cAcyTehocmHuWpAyz-10" target="XV3cAcyTehocmHuWpAyz-6">
          <mxGeometry relative="1" as="geometry" />
        </mxCell>
        <mxCell id="XV3cAcyTehocmHuWpAyz-17" value="" style="endArrow=classic;startArrow=classic;html=1;rounded=0;entryX=0;entryY=0.5;entryDx=0;entryDy=0;exitX=0.999;exitY=0.543;exitDx=0;exitDy=0;exitPerimeter=0;" edge="1" parent="1" source="XV3cAcyTehocmHuWpAyz-5" target="XV3cAcyTehocmHuWpAyz-8">
          <mxGeometry width="50" height="50" relative="1" as="geometry">
            <mxPoint x="360" y="640" as="sourcePoint" />
            <mxPoint x="410" y="590" as="targetPoint" />
          </mxGeometry>
        </mxCell>
        <mxCell id="XV3cAcyTehocmHuWpAyz-18" value="" style="endArrow=classic;startArrow=classic;html=1;rounded=0;entryX=0;entryY=0.5;entryDx=0;entryDy=0;exitX=0.983;exitY=0.63;exitDx=0;exitDy=0;exitPerimeter=0;" edge="1" parent="1" source="XV3cAcyTehocmHuWpAyz-5" target="XV3cAcyTehocmHuWpAyz-9">
          <mxGeometry width="50" height="50" relative="1" as="geometry">
            <mxPoint x="340" y="850" as="sourcePoint" />
            <mxPoint x="390" y="800" as="targetPoint" />
          </mxGeometry>
        </mxCell>
      </root>
    </mxGraphModel>
  </diagram>
</mxfile>
